<svg width="24" height="24" viewBox="0 0 24 24" fill="none" xmlns="http://www.w3.org/2000/svg">
<path d="M12 2C10.1847 2 8.51017 2.43318 6.97653 3.29953C5.44288 4.13601 4.22222 5.28616 3.31455 6.75C2.43818 8.21384 2 9.81211 2 11.5448C2 13.1281 2.35994 14.6069 3.07981 15.9811C3.83099 17.3255 4.8482 18.4458 6.13146 19.342C7.41471 20.2382 8.85446 20.7909 10.4507 21V14.3231H7.91549V11.5448H10.4507V9.43868C10.4507 8.27358 10.7793 7.36242 11.4366 6.70519C12.1252 6.04796 13.0485 5.71934 14.2066 5.71934C14.9577 5.71934 15.7089 5.77909 16.4601 5.89858V8.27358H15.1925C14.6291 8.27358 14.2066 8.42296 13.9249 8.7217C13.6745 8.99057 13.5493 9.33412 13.5493 9.75236V11.5448H16.3662L15.8967 14.3231H13.5493V21C15.1768 20.761 16.6322 20.1934 17.9155 19.2972C19.1987 18.4009 20.2003 17.2807 20.9202 15.9363C21.6401 14.5621 22 13.0983 22 11.5448C22 9.81211 21.5462 8.21384 20.6385 6.75C19.7621 5.28616 18.5571 4.13601 17.0235 3.29953C15.4898 2.43318 13.8153 2 12 2Z" fill="url(#paint0_linear)"/>
<defs>
<linearGradient id="paint0_linear" x1="12" y1="2" x2="12" y2="21" gradientUnits="userSpaceOnUse">
<stop stop-color="#19AFFF"/>
<stop offset="1" stop-color="#0062E0"/>
</linearGradient>
</defs>
</svg>
