<svg width="88" height="88" viewBox="0 0 88 88" fill="none" xmlns="http://www.w3.org/2000/svg">
<path opacity="0.4" d="M44.0001 34.0001C46.6522 34.0001 49.1958 35.0536 51.0712 36.929C52.9465 38.8043 54.0001 41.3479 54.0001 44.0001C54.0001 46.6522 52.9465 49.1957 51.0712 51.0711C49.1958 52.9465 46.6522 54.0001 44.0001 54.0001C41.3479 54.0001 38.8044 52.9465 36.929 51.0711C35.0537 49.1957 34.0001 46.6522 34.0001 44.0001C34.0001 41.3479 35.0537 38.8043 36.929 36.929C38.8044 35.0536 41.3479 34.0001 44.0001 34.0001ZM44.0001 30.6667C40.4639 30.6667 37.0725 32.0715 34.572 34.572C32.0715 37.0725 30.6667 40.4639 30.6667 44.0001C30.6667 47.5363 32.0715 50.9276 34.572 53.4281C37.0725 55.9286 40.4639 57.3334 44.0001 57.3334C47.5363 57.3334 50.9277 55.9286 53.4282 53.4281C55.9287 50.9276 57.3334 47.5363 57.3334 44.0001C57.3334 40.4639 55.9287 37.0725 53.4282 34.572C50.9277 32.0715 47.5363 30.6667 44.0001 30.6667Z" fill="#1882FF"/>
<path opacity="0.3" d="M44 19.8334C50.4073 19.8404 56.5501 22.3888 61.0807 26.9194C65.6113 31.45 68.1596 37.5928 68.1667 44C68.1596 50.4073 65.6113 56.55 61.0807 61.0806C56.5501 65.6112 50.4073 68.1596 44 68.1667C37.5928 68.1596 31.45 65.6112 26.9194 61.0806C22.3888 56.55 19.8404 50.4073 19.8334 44C19.8413 37.5931 22.39 31.4508 26.9204 26.9204C31.4508 22.39 37.5931 19.8413 44 19.8334ZM44 17.3334C36.9276 17.3334 30.1448 20.1429 25.1439 25.1438C20.1429 30.1448 17.3334 36.9276 17.3334 44C17.3334 51.0725 20.1429 57.8552 25.1439 62.8561C30.1448 67.8571 36.9276 70.6667 44 70.6667C51.0725 70.6667 57.8553 67.8571 62.8562 62.8561C67.8572 57.8552 70.6667 51.0725 70.6667 44C70.6667 36.9276 67.8572 30.1448 62.8562 25.1438C57.8553 20.1429 51.0725 17.3334 44 17.3334Z" fill="#1882FF"/>
<path opacity="0.2" d="M44 9.00004C53.2794 9.01063 62.1756 12.7015 68.7371 19.263C75.2986 25.8245 78.9895 34.7207 79 44C78.9895 53.2794 75.2986 62.1756 68.7371 68.7371C62.1756 75.2986 53.2794 78.9895 44 79C34.7207 78.9895 25.8245 75.2986 19.263 68.7371C12.7015 62.1756 9.01063 53.2794 9.00004 44C9.01063 34.7207 12.7015 25.8245 19.263 19.263C25.8245 12.7015 34.7207 9.01063 44 9.00004ZM44 7.33337C34.2754 7.33337 24.9491 11.1964 18.0728 18.0727C11.1965 24.949 7.33337 34.2754 7.33337 44C7.33337 53.7246 11.1965 63.0509 18.0728 69.9273C24.9491 76.8036 34.2754 80.6667 44 80.6667C53.7246 80.6667 63.051 76.8036 69.9273 69.9273C76.8036 63.0509 80.6667 53.7246 80.6667 44C80.6667 34.2754 76.8036 24.949 69.9273 18.0727C63.051 11.1964 53.7246 7.33337 44 7.33337Z" fill="#1882FF"/>
<path d="M55.9486 38.26L38.6343 38.2652L35.2664 17.1526C35.2119 16.8159 35.2312 16.4714 35.323 16.1428C35.4149 15.8143 35.577 15.5097 35.7982 15.25C36.0194 14.9903 36.2944 14.7819 36.6041 14.639C36.9139 14.4961 37.251 14.4222 37.5921 14.4225C37.9652 14.4239 38.3325 14.5148 38.6632 14.6876C38.9939 14.8604 39.2783 15.11 39.4925 15.4155L55.9486 38.26Z" fill="#1882FF"/>
<path d="M27.2081 39.0248L27.2444 39.1285C24.9572 39.7065 22.7019 40.404 20.4878 41.2182L20.4541 41.1119L18.9736 32.9267C18.8557 32.4014 18.9346 31.8511 19.1952 31.38C19.4558 30.9089 19.8802 30.5497 20.3878 30.3705C20.8955 30.1913 21.4513 30.2044 21.9499 30.4074C22.4485 30.6105 22.8554 30.9893 23.0935 31.4722L27.2081 39.0248Z" fill="#1882FF"/>
<path d="M23.1037 54.9623C22.9122 55.312 22.6307 55.6044 22.2884 55.809C21.9461 56.0136 21.5554 56.1232 21.1566 56.1264C20.867 56.1269 20.5802 56.0702 20.3126 55.9597C20.045 55.8491 19.8019 55.6868 19.5971 55.482C19.3924 55.2773 19.2301 55.0341 19.1195 54.7665C19.0089 54.4989 18.9523 54.2121 18.9528 53.9226C18.9531 53.7825 18.9661 53.6428 18.9917 53.5051L20.4954 45.3121L20.5291 45.2058C22.6794 46.0045 24.8698 46.6908 27.0913 47.2619L27.2469 47.4174L23.1037 54.9623Z" fill="#1882FF"/>
<path d="M39.4924 71.0397C39.1839 71.4713 38.7383 71.7859 38.2283 71.9321C37.7182 72.0784 37.1737 72.0477 36.6832 71.8452C36.1928 71.6427 35.7854 71.2801 35.5271 70.8166C35.2689 70.353 35.1752 69.8158 35.2611 69.2922L38.6342 48.19L55.9485 48.1848L39.4924 71.0397Z" fill="#1882FF"/>
<path d="M75.2175 43.2173C75.2175 40.8995 72.0518 38.9575 67.7712 38.4104C66.0807 38.1926 68.1004 38.2471 33.1324 38.2652C31.1389 38.3263 29.1594 38.6196 27.2339 39.139C23.2242 40.2013 19.302 41.57 15.5018 43.2329C19.2409 44.8771 23.1007 46.2319 27.0472 47.2853C29.034 47.8243 31.0773 48.1271 33.135 48.1876C67.9501 48.172 66.0392 48.2421 67.7789 48.0165C72.0595 47.4746 75.2201 45.5275 75.2175 43.2173Z" fill="#1882FF"/>
<path d="M49.5236 57.1142L52.2874 57.1142C52.8137 57.1129 53.3181 56.9033 53.6903 56.5311C54.0625 56.1589 54.2721 55.6545 54.2734 55.1282C54.2725 54.6181 54.0741 54.1282 53.7198 53.7613C53.3654 53.3944 52.8827 53.179 52.373 53.1603L49.5236 57.1142Z" fill="#1882FF"/>
<path d="M52.3575 33.2794C52.8678 33.2571 53.3499 33.0391 53.7038 32.6708C54.0576 32.3024 54.2561 31.8119 54.2579 31.3011C54.2534 30.7766 54.0409 30.2753 53.667 29.9074C53.2932 29.5394 52.7887 29.3348 52.2641 29.3385L49.5081 29.341L52.3575 33.2794Z" fill="#1882FF"/>
</svg>
