<svg width="25" height="24" viewBox="0 0 25 24" fill="none" xmlns="http://www.w3.org/2000/svg">
<path opacity="0.88" d="M15.7031 10.8302L10.5307 10.8304L9.51904 4.52421C9.50283 4.42364 9.50864 4.32076 9.53607 4.22268C9.5635 4.1246 9.6119 4.03365 9.67792 3.95612C9.74395 3.87859 9.82602 3.81632 9.91848 3.77362C10.0109 3.73092 10.1116 3.7088 10.2134 3.7088C10.3254 3.70786 10.4359 3.73389 10.5356 3.78469C10.6354 3.83549 10.7215 3.90956 10.7866 4.00063L15.7031 10.8302Z" fill="#909292"/>
<path opacity="0.8" d="M7.11619 11.0569L7.12698 11.0883C6.44463 11.262 5.77185 11.4713 5.11143 11.7154L5.1011 11.6835L4.65595 9.23433C4.63086 9.08079 4.66054 8.92334 4.7398 8.78951C4.81905 8.65568 4.94284 8.55399 5.08952 8.50222C5.2362 8.45046 5.39643 8.4519 5.54219 8.50631C5.68796 8.56072 5.80999 8.66462 5.88694 8.79986L7.11619 11.0569Z" fill="#4C4C4C"/>
<path opacity="0.8" d="M5.89179 15.8183C5.83449 15.9225 5.75045 16.0095 5.64834 16.0704C5.54622 16.1313 5.42971 16.1639 5.3108 16.1648C5.13682 16.1649 4.96981 16.0963 4.84624 15.9738C4.72267 15.8512 4.65257 15.6848 4.65125 15.5109C4.6514 15.4692 4.65532 15.4276 4.66295 15.3866L5.10324 12.932L5.11355 12.9001C5.75612 13.1388 6.41067 13.3438 7.07452 13.5145L7.12143 13.5614L5.89179 15.8183Z" fill="#4C4C4C"/>
<path opacity="0.88" d="M10.7895 20.6231C10.6974 20.7522 10.5643 20.8464 10.4118 20.8901C10.2593 20.9339 10.0965 20.9248 9.94984 20.8643C9.80317 20.8037 9.6813 20.6953 9.60407 20.5567C9.52685 20.418 9.49882 20.2574 9.52456 20.1008L10.5329 13.7946L15.7053 13.7944L10.7895 20.6231Z" fill="#909292"/>
<path d="M21.4613 12.3128C21.4612 11.6205 20.5156 11.0397 19.2376 10.8776C18.732 10.8128 19.336 10.8289 8.88845 10.8317C8.29315 10.8498 7.70202 10.9371 7.127 11.092C5.92833 11.4086 4.75579 11.8167 3.61973 12.3129C4.73648 12.8048 5.88928 13.2102 7.06799 13.5256C7.66069 13.6875 8.27037 13.7791 8.88443 13.7985C19.2861 13.7957 18.7153 13.8166 19.2354 13.7497C20.5176 13.584 21.4653 13.005 21.4613 12.3128Z" fill="#4C4C4C"/>
<path opacity="0.72" d="M13.7835 16.4677L14.6091 16.4677C14.7663 16.4669 14.9169 16.404 15.0281 16.2928C15.1393 16.1816 15.2021 16.0311 15.203 15.8738C15.2026 15.7214 15.1432 15.5751 15.0373 15.4656C14.9314 15.356 14.7872 15.2917 14.6349 15.2861L13.7835 16.4677Z" fill="#4C4C4C"/>
<path opacity="0.72" d="M14.6333 9.3443C14.7861 9.33724 14.9304 9.27179 15.0364 9.16146C15.1423 9.05113 15.2019 8.90434 15.2028 8.75137C15.2023 8.67367 15.1865 8.59683 15.1563 8.52525C15.1261 8.45367 15.082 8.38875 15.0267 8.3342C14.9714 8.27965 14.9058 8.23655 14.8338 8.20736C14.7618 8.17816 14.6847 8.16345 14.607 8.16407L13.7833 8.16407L14.6333 9.3443Z" fill="#4C4C4C"/>
</svg>
