<svg width="25" height="24" viewBox="0 0 25 24" fill="none" xmlns="http://www.w3.org/2000/svg">
<path d="M4.65381 7.66748V19.3486C4.6576 19.7862 4.83305 20.2047 5.14237 20.5142C5.4517 20.8237 5.87018 20.9994 6.30773 21.0035H19.6928C20.1302 20.9994 20.5485 20.8239 20.8578 20.5146C21.1671 20.2053 21.3427 19.7869 21.3467 19.3495V7.66748H4.65381ZM17.4015 12.5874C16.9951 13.0421 16.5886 13.4458 16.1822 13.8977C16.0728 14.0302 15.951 14.152 15.8185 14.2614C15.6914 14.4139 15.6265 14.6087 15.6366 14.8069C15.7276 15.3525 15.7721 15.8462 15.8185 16.3881C15.863 16.6145 15.863 16.8427 15.9094 17.0246C15.9291 17.1235 15.9227 17.2258 15.8908 17.3215C15.859 17.4171 15.8027 17.5028 15.7276 17.5701C15.6351 17.6337 15.5274 17.6714 15.4155 17.6794C15.3036 17.6874 15.1916 17.6653 15.0911 17.6156C14.4546 17.2992 13.8718 16.9791 13.2844 16.6218C13.1917 16.5552 13.0804 16.5193 12.9662 16.5193C12.852 16.5193 12.7407 16.5552 12.6479 16.6218C12.0115 16.9382 11.3832 17.2992 10.7503 17.6156C10.6665 17.6607 10.5728 17.6843 10.4776 17.6843C10.3823 17.6843 10.2886 17.6607 10.2048 17.6156C10.1152 17.5719 10.0436 17.4983 10.0025 17.4075C9.96131 17.3167 9.95311 17.2144 9.97928 17.1182C10.032 16.8791 10.0624 16.6356 10.0702 16.3908C10.1611 15.8453 10.2521 15.307 10.2966 14.7642C10.3117 14.6726 10.3029 14.5787 10.2711 14.4916C10.2392 14.4044 10.1854 14.327 10.1148 14.2668L8.62359 12.6402C8.57007 12.5915 8.5273 12.5322 8.49804 12.466C8.46877 12.3999 8.45366 12.3283 8.45366 12.256C8.45366 12.1837 8.46877 12.1121 8.49804 12.046C8.5273 11.9798 8.57007 11.9205 8.62359 11.8719C8.66329 11.8276 8.71217 11.7925 8.76683 11.7691C8.82148 11.7457 8.88059 11.7346 8.94001 11.7364C9.66287 11.6009 10.3403 11.42 11.0631 11.239C11.1628 11.2202 11.2564 11.1771 11.3357 11.1137C11.4149 11.0503 11.4774 10.9685 11.5177 10.8753L12.4661 8.97771C12.5229 8.85438 12.6246 8.75743 12.7506 8.70671C12.8765 8.656 13.0171 8.65536 13.1435 8.70493C13.188 8.70493 13.188 8.74949 13.2344 8.74949C13.3181 8.80305 13.382 8.88257 13.4162 8.97589C13.7327 9.56327 14.0936 10.1952 14.4101 10.828C14.4562 10.9171 14.5205 10.9955 14.5988 11.0581C14.6771 11.1208 14.7677 11.1663 14.8647 11.1917C15.5875 11.3272 16.3095 11.5082 17.0332 11.6464C17.106 11.6612 17.175 11.691 17.2356 11.7339C17.2963 11.7768 17.3473 11.8319 17.3856 11.8956C17.4238 11.9593 17.4483 12.0303 17.4577 12.104C17.467 12.1777 17.4609 12.2525 17.4397 12.3237C17.4541 12.3677 17.4582 12.4143 17.4516 12.4601C17.4449 12.5058 17.4278 12.5494 17.4015 12.5874V12.5874Z" fill="#666666"/>
<path opacity="0.6" d="M9.66662 3.00492C9.66662 2.80428 9.81816 2.70396 10.1212 2.70396H15.8859C16.189 2.70396 16.3405 2.80428 16.3405 3.00492V5.71267C16.3405 5.8627 16.2905 5.96362 16.0896 6.01363C16.0036 6.0337 15.9144 6.03515 15.8278 6.0179C15.7412 6.00065 15.6594 5.96509 15.5877 5.91361L13.3264 4.40971C13.2558 4.35595 13.1739 4.319 13.087 4.30167C13 4.28434 12.9102 4.28708 12.8244 4.3097C12.7856 4.31037 12.7474 4.31969 12.7127 4.337C12.6779 4.3543 12.6474 4.37914 12.6235 4.40971C11.8716 4.91162 11.1687 5.40989 10.4186 5.91361C10.3561 5.96496 10.2823 6.00079 10.2033 6.01818C10.1242 6.03556 10.0422 6.034 9.96395 6.01363C9.89033 6.0009 9.82054 5.97173 9.75977 5.92828C9.699 5.88482 9.64883 5.82822 9.61298 5.76268V5.66266C9.66662 4.70977 9.66662 3.8578 9.66662 3.00492ZM21.3468 7.66756C21.7843 7.66376 22.2028 7.48829 22.5121 7.17893C22.8215 6.86958 22.997 6.4511 23.0008 6.01363V2.65395C23.0086 2.43886 22.9729 2.22441 22.8957 2.02349C22.8185 1.82257 22.7015 1.63934 22.5516 1.48483C22.4018 1.33032 22.2223 1.20772 22.0238 1.1244C21.8253 1.04109 21.6121 0.99878 21.3969 1.00003H4.65393C4.21653 1.00406 3.79818 1.17961 3.48888 1.48891C3.17958 1.79821 3.00403 2.21655 3 2.65395V6.01363C3.0038 6.4511 3.17927 6.86958 3.48862 7.17893C3.79797 7.48829 4.21645 7.66376 4.65393 7.66756H21.3468Z" fill="#666666"/>
<path opacity="0.2" d="M9.66642 3.0058C9.66642 2.80515 9.81796 2.70483 10.121 2.70483H15.8857C16.1888 2.70483 16.3403 2.80515 16.3403 3.0058V5.71263C16.3403 5.86266 16.2903 5.96359 16.0894 6.01359C16.0034 6.03366 15.9142 6.03512 15.8276 6.01787C15.741 6.00062 15.6592 5.96506 15.5875 5.91358L13.3325 4.40968C13.262 4.35592 13.1801 4.31897 13.0931 4.30163C13.0062 4.2843 12.9164 4.28705 12.8306 4.30966C12.7918 4.31033 12.7536 4.31966 12.7188 4.33696C12.6841 4.35426 12.6536 4.37911 12.6297 4.40968C11.8777 4.91158 11.1749 5.40985 10.4247 5.91358C10.3622 5.96493 10.2884 6.00076 10.2094 6.01814C10.1304 6.03552 10.0484 6.03397 9.97011 6.01359C9.8965 6.00087 9.82671 5.97169 9.76594 5.92824C9.70517 5.88479 9.65499 5.82818 9.61914 5.76264V5.66262C9.66642 4.70973 9.66642 3.85776 9.66642 3.0058Z" fill="#666666"/>
</svg>
