<svg width="25" height="24" viewBox="0 0 25 24" fill="none" xmlns="http://www.w3.org/2000/svg">
<path opacity="0.4" d="M20.5 7.88606V19H3.5L3.54709 7.8768C3.54709 7.31278 3.8108 6.77656 4.2723 6.4252L10.8651 1.39527C11.5432 0.868242 12.5039 0.868242 13.182 1.39527L14.444 2.35686L18.6163 5.53755L19.7748 6.4252C20.2363 6.77656 20.5 7.31279 20.5 7.88606Z" fill="#4C4C4C"/>
<path d="M12.9655 14.3767H11.0818C10.3001 14.3767 9.66907 14.9962 9.66907 15.7636V18.9998H14.3782V15.7636C14.3782 14.9962 13.7472 14.3767 12.9655 14.3767Z" fill="#4C4C4C"/>
<path opacity="0.6" d="M9.66899 11.3722H7.78533C7.26733 11.3722 6.84351 10.9561 6.84351 10.4475V9.0606C6.84351 8.55206 7.26733 8.13599 7.78533 8.13599H9.66899C10.187 8.13599 10.6108 8.55206 10.6108 9.0606V10.4475C10.6108 10.9561 10.187 11.3722 9.66899 11.3722Z" fill="#4C4C4C"/>
<path opacity="0.6" d="M16.2618 11.3722H14.3781C13.8601 11.3722 13.4363 10.9561 13.4363 10.4475V9.0606C13.4363 8.55206 13.8601 8.13599 14.3781 8.13599H16.2618C16.7798 8.13599 17.2036 8.55206 17.2036 9.0606V10.4475C17.2036 10.9561 16.7798 11.3722 16.2618 11.3722Z" fill="#4C4C4C"/>
<path d="M18.6164 5.53787L14.4441 2.35718H17.6557C18.1737 2.35718 18.5976 2.764 18.5976 3.27254L18.6164 5.53787Z" fill="#4C4C4C"/>
<rect x="2" y="19" width="20" height="2" rx="1" fill="#909292"/>
</svg>
