<svg width="24" height="24" viewBox="0 0 24 24" fill="none" xmlns="http://www.w3.org/2000/svg">
<path d="M7.77465 2H16.2254C17.2582 2 18.2128 2.26604 19.0892 2.79812C19.9969 3.2989 20.7011 4.00313 21.2019 4.9108C21.734 5.78717 22 6.74178 22 7.77465V16.2254C22 17.2582 21.734 18.2285 21.2019 19.1362C20.7011 20.0125 19.9969 20.7011 19.0892 21.2019C18.2128 21.734 17.2582 22 16.2254 22H7.77465C6.74178 22 5.77152 21.734 4.86385 21.2019C3.98748 20.7011 3.28326 20.0125 2.75117 19.1362C2.25039 18.2285 2 17.2582 2 16.2254V7.77465C2 6.74178 2.25039 5.78717 2.75117 4.9108C3.28326 4.00313 3.98748 3.2989 4.86385 2.79812C5.77152 2.26604 6.74178 2 7.77465 2ZM7.58685 3.97183C6.58529 3.97183 5.72457 4.33177 5.00469 5.05164C4.31612 5.74022 3.97183 6.58529 3.97183 7.58685V16.4131C3.97183 17.4147 4.31612 18.2754 5.00469 18.9953C5.72457 19.6839 6.58529 20.0282 7.58685 20.0282H16.4131C17.4147 20.0282 18.2598 19.6839 18.9484 18.9953C19.6682 18.2754 20.0282 17.4147 20.0282 16.4131V7.58685C20.0282 6.58529 19.6682 5.74022 18.9484 5.05164C18.2598 4.33177 17.4147 3.97183 16.4131 3.97183H7.58685ZM17.2582 5.47418C17.6025 5.47418 17.8998 5.59937 18.1502 5.84977C18.4006 6.10016 18.5258 6.3975 18.5258 6.74178C18.5258 7.08607 18.4006 7.38341 18.1502 7.6338C17.8998 7.88419 17.6025 8.00939 17.2582 8.00939C16.9139 8.00939 16.6166 7.88419 16.3662 7.6338C16.1158 7.38341 15.9906 7.08607 15.9906 6.74178C15.9906 6.3975 16.1158 6.10016 16.3662 5.84977C16.6166 5.59937 16.9139 5.47418 17.2582 5.47418ZM12 6.97653C12.9077 6.97653 13.7371 7.21127 14.4883 7.68075C15.2707 8.11894 15.8811 8.72926 16.3192 9.51174C16.7887 10.2629 17.0235 11.0923 17.0235 12C17.0235 12.9077 16.7887 13.7527 16.3192 14.5352C15.8811 15.2864 15.2707 15.8967 14.4883 16.3662C13.7371 16.8044 12.9077 17.0235 12 17.0235C11.0923 17.0235 10.2473 16.8044 9.46479 16.3662C8.71362 15.8967 8.10329 15.2864 7.6338 14.5352C7.19562 13.7527 6.97653 12.9077 6.97653 12C6.97653 11.0923 7.19562 10.2629 7.6338 9.51174C8.10329 8.72926 8.71362 8.11894 9.46479 7.68075C10.2473 7.21127 11.0923 6.97653 12 6.97653ZM12 8.99531C11.1549 8.99531 10.4351 9.29264 9.84038 9.88732C9.277 10.4507 8.99531 11.1549 8.99531 12C8.99531 12.8451 9.277 13.5649 9.84038 14.1596C10.4351 14.723 11.1549 15.0047 12 15.0047C12.8451 15.0047 13.5493 14.723 14.1127 14.1596C14.7074 13.5649 15.0047 12.8451 15.0047 12C15.0047 11.1549 14.7074 10.4507 14.1127 9.88732C13.5493 9.29264 12.8451 8.99531 12 8.99531Z" fill="#1B1B1B"/>
</svg>
