<svg width="24" height="24" viewBox="0 0 24 24" fill="none" xmlns="http://www.w3.org/2000/svg">
<path d="M19.7604 2C20.3854 2 20.9062 2.22569 21.3229 2.67708C21.7743 3.09375 22 3.61458 22 4.23958V19.7604C22 20.3854 21.7743 20.9236 21.3229 21.375C20.9062 21.7917 20.3854 22 19.7604 22H4.23958C3.61458 22 3.07639 21.7917 2.625 21.375C2.20833 20.9236 2 20.3854 2 19.7604V4.23958C2 3.61458 2.20833 3.09375 2.625 2.67708C3.07639 2.22569 3.61458 2 4.23958 2H19.7604ZM19.2396 19.2396V13.3542C19.2396 12.3472 18.875 11.4965 18.1458 10.8021C17.4514 10.0729 16.6007 9.70833 15.5938 9.70833C15.1076 9.70833 14.6215 9.84722 14.1354 10.125C13.6493 10.4028 13.2847 10.75 13.0417 11.1667V9.91667H9.91667V19.2396H13.0417V13.7188C13.0417 13.3021 13.1806 12.9549 13.4583 12.6771C13.7708 12.3646 14.1354 12.2083 14.5521 12.2083C15.0035 12.2083 15.3681 12.3646 15.6458 12.6771C15.9583 12.9549 16.1146 13.3021 16.1146 13.7188V19.2396H19.2396ZM6.32292 8.19792C6.84375 8.19792 7.27778 8.02431 7.625 7.67708C8.00694 7.29514 8.19792 6.84375 8.19792 6.32292C8.19792 5.80208 8.00694 5.36806 7.625 5.02083C7.27778 4.63889 6.84375 4.44792 6.32292 4.44792C5.80208 4.44792 5.35069 4.63889 4.96875 5.02083C4.62153 5.36806 4.44792 5.80208 4.44792 6.32292C4.44792 6.84375 4.62153 7.29514 4.96875 7.67708C5.35069 8.02431 5.80208 8.19792 6.32292 8.19792ZM7.83333 19.2396V9.91667H4.76042V19.2396H7.83333Z" fill="#0073AF"/>
</svg>
