<svg width="24" height="24" viewBox="0 0 24 24" fill="none" xmlns="http://www.w3.org/2000/svg">
<path d="M12 2C10.1534 2 8.46322 2.44285 6.92958 3.32856C5.39593 4.21427 4.19092 5.42801 3.31455 6.9698C2.43818 8.51159 2 10.2502 2 12.1856C2 13.6618 2.26604 15.056 2.79812 16.3681C3.3615 17.6475 4.14398 18.7628 5.14554 19.7141C5.30203 19.8454 5.38028 20.0422 5.38028 20.3046L5.42723 22.1744C5.45853 22.4697 5.58372 22.6993 5.80282 22.8633C6.05321 23.0273 6.31925 23.0437 6.60094 22.9125L8.57277 21.9776C8.76056 21.912 8.93271 21.8956 9.0892 21.9284C9.99687 22.2236 10.9671 22.3713 12 22.3713C13.8466 22.3713 15.5368 21.9284 17.0704 21.0427C18.6041 20.157 19.8091 18.9432 20.6854 17.4015C21.5618 15.8269 22 14.0883 22 12.1856C22 10.2502 21.5618 8.51159 20.6854 6.9698C19.8091 5.42801 18.6041 4.21427 17.0704 3.32856C15.5368 2.44285 13.8466 2 12 2ZM18.0094 9.82374L15.0516 14.6951C14.8326 15.0888 14.5039 15.3348 14.0657 15.4332C13.6275 15.4988 13.2363 15.384 12.892 15.0888L10.5446 13.2682C10.4507 13.2026 10.3255 13.1697 10.169 13.1697C10.0438 13.1697 9.93427 13.2026 9.84038 13.2682L6.69484 15.8269C6.47574 15.9909 6.25665 15.9909 6.03756 15.8269C5.84977 15.63 5.83412 15.4004 5.99061 15.138L8.94836 10.2666C9.16745 9.87295 9.49609 9.64332 9.93427 9.57771C10.3725 9.4793 10.7637 9.56131 11.108 9.82374L13.4554 11.6936C13.7058 11.8576 13.9405 11.8576 14.1596 11.6936L17.3052 9.13486C17.5243 8.97084 17.7277 8.98724 17.9155 9.18407C18.1346 9.34809 18.1659 9.56131 18.0094 9.82374Z" fill="#0099FF"/>
</svg>
