<svg width="88" height="88" viewBox="0 0 88 88" fill="none" xmlns="http://www.w3.org/2000/svg">
<path opacity="0.56" d="M65.9999 80.6118H62.3995C63.3429 80.6291 64.2798 80.4555 65.1544 80.1013C66.029 79.7472 66.823 79.2199 67.4886 78.5511C68.8605 77.177 69.6588 75.3329 69.7216 73.3922V14.6118C69.6588 12.6711 68.8605 10.827 67.4886 9.45288C66.8172 8.77955 66.0158 8.24972 65.1334 7.89548C64.2509 7.54125 63.3058 7.36997 62.3552 7.39217H65.9851C66.9396 7.36787 67.889 7.53832 68.7754 7.89325C69.6618 8.24818 70.4665 8.7801 71.1405 9.45646C72.5124 10.8305 73.3107 12.6747 73.3735 14.6154V73.3922C73.3107 75.3329 72.5124 77.177 71.1405 78.5511C70.4683 79.2255 69.6659 79.756 68.7821 80.1103C67.8983 80.4646 66.9518 80.6352 65.9999 80.6118Z" fill="#1882FF"/>
<path d="M18.3333 7.39208C17.3786 7.36605 16.4286 7.53578 15.542 7.89081C14.6554 8.24584 13.8508 8.77865 13.1779 9.45641C11.8047 10.8281 11.0062 12.6718 10.9449 14.6117V73.3921C11.0062 75.3321 11.8047 77.1757 13.1779 78.5474C13.8512 79.2245 14.6558 79.7566 15.5425 80.111C16.4291 80.4654 17.3788 80.6346 18.3333 80.6081H62.3333C63.2877 80.6346 64.2375 80.4654 65.1241 80.111C66.0107 79.7566 66.8154 79.2245 67.4886 78.5474C68.8632 77.1763 69.6631 75.3326 69.7253 73.3921V14.6081C69.6641 12.6681 68.8655 10.8244 67.4923 9.45274C66.8186 8.77518 66.0134 8.24279 65.1261 7.88839C64.2388 7.53398 63.2883 7.36507 62.3333 7.39208H18.3333ZM40.3333 18.3921C45.1926 18.3844 49.8576 20.2997 53.3096 23.7197C55.0297 25.3964 56.3954 27.4016 57.3257 29.6162C58.256 31.8308 58.732 34.2097 58.7253 36.6117C58.7432 39.0405 58.273 41.448 57.3427 43.6916C56.4124 45.9352 55.0409 47.969 53.3096 49.6724C49.8576 53.0925 45.1926 55.0078 40.3333 55.0001C35.4739 55.0078 30.8089 53.0925 27.3569 49.6724C25.6257 47.969 24.2542 45.9352 23.3239 43.6916C22.3936 41.448 21.9234 39.0405 21.9413 36.6117C21.9346 34.2097 22.4105 31.8308 23.3408 29.6162C24.2711 27.4016 25.6369 25.3964 27.3569 23.7197C30.8089 20.2997 35.4739 18.3844 40.3333 18.3921ZM40.3333 22.0001C38.8454 24.2898 37.6887 26.7785 36.8976 29.3921H43.7726C43.0782 26.742 41.9132 24.2382 40.3333 22.0001ZM35.5226 22.8581C32.1521 23.9489 29.3248 26.2845 27.6173 29.3884H32.9449C33.6148 27.1416 34.4772 24.9567 35.5226 22.8581ZM45.1476 22.8581C46.1893 24.957 47.048 27.1419 47.7143 29.3884H53.0529C51.2765 26.3423 48.4743 24.0275 45.1476 22.8581ZM26.0663 33.0001C25.8328 34.1884 25.7173 35.397 25.7216 36.6081C25.7227 37.876 25.838 39.1412 26.0663 40.3884H32.2666C32.1517 39.1271 32.0943 37.8951 32.0943 36.6924C32.0943 35.4897 32.1517 34.259 32.2666 33.0001H26.0663ZM36.0359 33.0001C35.8024 34.1884 35.687 35.397 35.6913 36.6081C35.6923 37.876 35.8077 39.1412 36.0359 40.3884H44.6306C44.7455 39.1271 44.8029 37.867 44.8029 36.6081C44.8029 35.3492 44.7455 34.1465 44.6306 33.0001H36.0359ZM48.3999 33.0001C48.5148 34.2614 48.5723 35.4934 48.5723 36.6961C48.5723 37.8987 48.5148 39.1307 48.3999 40.3921H54.6003C54.8285 39.1449 54.9439 37.8797 54.9449 36.6117C54.9495 35.3994 54.834 34.1896 54.6003 33.0001H48.3999ZM27.6136 44.0001C29.3909 47.0469 32.1945 49.3618 35.5226 50.5304C34.4759 48.4319 33.6123 46.2471 32.9413 44.0001H27.6136ZM36.8976 44.0001C37.6887 46.6137 38.8454 49.1023 40.3333 51.3921C41.9132 49.154 43.0782 46.6502 43.7726 44.0001H36.8976ZM47.7253 44.0001C47.059 46.2466 46.2003 48.4314 45.1586 50.5304C48.4813 49.3588 51.2793 47.0442 53.0529 44.0001H47.7253ZM21.9413 62.3921H58.7253V69.6117H21.9413V62.3921Z" fill="#1882FF"/>
</svg>
