<svg width="60" height="61" viewBox="0 0 60 61" fill="none" xmlns="http://www.w3.org/2000/svg">
<path fill-rule="evenodd" clip-rule="evenodd" d="M0 30.5C0 13.9583 13.4574 0.500319 29.9988 0.5C46.5415 0.5 60.0001 13.958 60.0001 30.5004C60.0001 47.0424 46.5418 60.5004 29.9991 60.5007C13.4574 60.5004 0 47.0421 0 30.5ZM17.2028 26.7811L39.1424 18.2587C40.0253 17.9155 41.0294 18.1267 41.7001 18.7971C42.3706 19.4676 42.5817 20.4711 42.2385 21.3549L33.7162 43.2925C33.3695 44.1847 32.5248 44.7843 31.5683 44.8172C31.5408 44.8181 31.5134 44.8185 31.486 44.8185C30.561 44.8185 29.7161 44.2845 29.3209 43.4431L25.4005 35.0952L17.0526 31.1764C16.186 30.7701 15.6453 29.8859 15.6782 28.9293C15.711 27.9727 16.3107 27.1275 17.2028 26.7811Z" fill="#1882FF"/>
</svg>
