<svg width="24" height="24" viewBox="0 0 24 24" fill="none" xmlns="http://www.w3.org/2000/svg">
<path d="M22 5.89532C21.2825 6.21855 20.5052 6.43893 19.6682 6.55647C20.5351 6.02755 21.133 5.27824 21.4619 4.30854C20.6547 4.7787 19.7877 5.10193 18.861 5.27824C18.0538 4.42608 17.0374 4 15.8117 4C14.7055 4 13.7489 4.39669 12.9417 5.19008C12.1345 5.98347 11.7309 6.93848 11.7309 8.0551C11.7309 8.34894 11.7758 8.65748 11.8655 8.98072C10.1913 8.89256 8.60688 8.48118 7.11211 7.74656C5.64723 6.98255 4.40658 5.98347 3.39013 4.74931C3.03139 5.36639 2.85202 6.04224 2.85202 6.77686C2.85202 7.48209 3.01644 8.12856 3.34529 8.71625C3.67414 9.30395 4.10762 9.7741 4.64574 10.1267C4.01794 10.1267 3.40508 9.96511 2.80717 9.64187V9.68595C2.80717 10.6556 3.12108 11.5078 3.74888 12.2424C4.37668 12.977 5.15396 13.4472 6.08072 13.6529C5.75187 13.741 5.39312 13.7851 5.00448 13.7851C4.76532 13.7851 4.51121 13.7557 4.24215 13.697C4.51121 14.5197 4.98954 15.1956 5.67713 15.7245C6.39462 16.2241 7.18685 16.4885 8.05381 16.5179C6.58894 17.6639 4.89985 18.2369 2.98655 18.2369C2.6577 18.2369 2.32885 18.2222 2 18.1928C3.9133 19.3976 6.00598 20 8.27803 20C10.6697 20 12.7922 19.3976 14.6457 18.1928C16.3498 17.135 17.6801 15.6951 18.6368 13.8733C19.5336 12.1396 19.9821 10.3618 19.9821 8.53994L19.9372 8.01102C20.7444 7.45271 21.432 6.74747 22 5.89532Z" fill="#3B7FFF"/>
</svg>
