<svg width="25" height="24" viewBox="0 0 25 24" fill="none" xmlns="http://www.w3.org/2000/svg">
<path opacity="0.4" d="M19.4001 1H18.2231C18.827 1 19.4062 1.2399 19.8332 1.66692C20.2602 2.09394 20.5001 2.6731 20.5001 3.277V20.722C20.5003 21.0211 20.4415 21.3173 20.3271 21.5937C20.2127 21.87 20.045 22.1212 19.8336 22.3327C19.6221 22.5443 19.3711 22.7121 19.0947 22.8266C18.8184 22.9411 18.5222 23 18.2231 23H19.4001C19.6891 23 19.9751 22.9431 20.242 22.8325C20.509 22.722 20.7515 22.5599 20.9558 22.3556C21.1601 22.1513 21.3221 21.9088 21.4327 21.6419C21.5432 21.375 21.6001 21.0889 21.6001 20.8V3.2C21.6001 2.91109 21.5432 2.62501 21.4327 2.3581C21.3221 2.09118 21.1601 1.84865 20.9558 1.64436C20.7515 1.44008 20.509 1.27803 20.242 1.16746C19.9751 1.0569 19.6891 1 19.4001 1Z" fill="#666666"/>
<path d="M12.2503 13.5299C12.7153 13.5299 13.4783 12.1689 13.6173 10.0359H10.8823C11.0233 12.1659 11.7873 13.5299 12.2503 13.5299Z" fill="#666666"/>
<path d="M8.12402 8.62301H9.48202C9.52668 7.64458 9.72197 6.6789 10.061 5.76001C9.55351 6.07247 9.1183 6.48937 8.78433 6.983C8.45036 7.47663 8.22527 8.03568 8.12402 8.62301Z" fill="#666666"/>
<path d="M12.2503 5.125C11.7873 5.125 11.0223 6.486 10.8823 8.625H13.6183C13.4743 6.484 12.7123 5.125 12.2503 5.125Z" fill="#666666"/>
<path d="M9.48102 10.0339H8.12402C8.22451 10.6218 8.44928 11.1814 8.78331 11.6755C9.11734 12.1696 9.55294 12.5867 10.061 12.8989C9.72152 11.9794 9.52589 11.0131 9.48102 10.0339Z" fill="#666666"/>
<path d="M14.4375 12.8986C14.9451 12.5868 15.3803 12.1702 15.7138 11.6766C16.0473 11.183 16.2716 10.6239 16.3715 10.0366H15.0145C14.9706 11.0146 14.776 11.98 14.4375 12.8986Z" fill="#666666"/>
<path d="M18.223 1.00001H6.278C5.97889 0.999874 5.6827 1.05867 5.40632 1.17304C5.12995 1.28742 4.87882 1.45512 4.66727 1.66657C4.45573 1.87802 4.28791 2.12908 4.17342 2.4054C4.05893 2.68173 4 2.9779 4 3.277V20.722C4 21.3262 4.24 21.9056 4.66721 22.3328C5.09442 22.76 5.67384 23 6.278 23H18.223C18.5225 23.0007 18.8192 22.9422 19.0961 22.828C19.373 22.7138 19.6247 22.5461 19.8367 22.3345C20.0486 22.1229 20.2168 21.8715 20.3315 21.5948C20.4462 21.3181 20.5051 21.0215 20.505 20.722V3.277C20.505 2.97756 20.4459 2.68106 20.3312 2.40448C20.2164 2.12789 20.0483 1.87666 19.8363 1.66515C19.6243 1.45365 19.3727 1.28603 19.0959 1.17189C18.8191 1.05776 18.5224 0.999348 18.223 1.00001ZM14.398 20.938H10.105C10.0078 20.9491 9.90942 20.9396 9.8162 20.91C9.72299 20.8804 9.63708 20.8315 9.5641 20.7664C9.49112 20.7013 9.43273 20.6215 9.39275 20.5322C9.35276 20.443 9.33209 20.3463 9.33209 20.2485C9.33209 20.1507 9.35276 20.054 9.39275 19.9648C9.43273 19.8755 9.49112 19.7957 9.5641 19.7306C9.63708 19.6655 9.72299 19.6166 9.8162 19.587C9.90942 19.5574 10.0078 19.5479 10.105 19.559H14.4C14.4982 19.5455 14.5982 19.5531 14.6932 19.5815C14.7882 19.6098 14.876 19.6582 14.9508 19.7233C15.0255 19.7885 15.0854 19.8689 15.1265 19.9591C15.1675 20.0494 15.1888 20.1474 15.1888 20.2465C15.1888 20.3456 15.1675 20.4436 15.1265 20.5339C15.0854 20.6241 15.0255 20.7045 14.9508 20.7697C14.876 20.8348 14.7882 20.8832 14.6932 20.9115C14.5982 20.9399 14.4982 20.9475 14.4 20.934L14.398 20.938ZM15.865 18.325H8.636C8.53778 18.3385 8.43781 18.3309 8.34281 18.3025C8.2478 18.2742 8.15997 18.2258 8.08524 18.1607C8.0105 18.0955 7.95059 18.0151 7.90953 17.9249C7.86848 17.8346 7.84724 17.7366 7.84724 17.6375C7.84724 17.5384 7.86848 17.4404 7.90953 17.3501C7.95059 17.2599 8.0105 17.1795 8.08524 17.1143C8.15997 17.0492 8.2478 17.0008 8.34281 16.9725C8.43781 16.9441 8.53778 16.9365 8.636 16.95H15.865C15.9632 16.9365 16.0632 16.9441 16.1582 16.9725C16.2532 17.0008 16.341 17.0492 16.4158 17.1143C16.4905 17.1795 16.5504 17.2599 16.5915 17.3501C16.6325 17.4404 16.6538 17.5384 16.6538 17.6375C16.6538 17.7366 16.6325 17.8346 16.5915 17.9249C16.5504 18.0151 16.4905 18.0955 16.4158 18.1607C16.341 18.2258 16.2532 18.2742 16.1582 18.3025C16.0632 18.3309 15.9632 18.3385 15.865 18.325ZM17.75 9.616C17.6999 11.0256 17.0927 12.3578 16.0616 13.3203C15.0305 14.2828 13.6597 14.797 12.25 14.75C10.8403 14.7967 9.46969 14.2824 8.43864 13.32C7.4076 12.3576 6.80033 11.0255 6.75 9.616V8.883C6.80163 7.474 7.40933 6.14283 8.44011 5.18084C9.47089 4.21884 10.8408 3.70436 12.25 3.75C13.6592 3.70436 15.0291 4.21884 16.0599 5.18084C17.0907 6.14283 17.6984 7.474 17.75 8.883V9.616Z" fill="#666666"/>
<path d="M14.4365 5.75903C14.7762 6.67814 14.9718 7.64419 15.0165 8.62303H16.3735C16.2731 8.03529 16.0483 7.47577 15.7143 6.98187C15.3803 6.48796 14.9446 6.07106 14.4365 5.75903Z" fill="#666666"/>
<path opacity="0.2" d="M10.1032 19.5622C10.005 19.5486 9.90503 19.5563 9.81002 19.5846C9.71502 19.613 9.62719 19.6614 9.55245 19.7265C9.47772 19.7916 9.4178 19.872 9.37675 19.9623C9.3357 20.0525 9.31445 20.1505 9.31445 20.2497C9.31445 20.3488 9.3357 20.4468 9.37675 20.537C9.4178 20.6273 9.47772 20.7077 9.55245 20.7728C9.62719 20.838 9.71502 20.8863 9.81002 20.9147C9.90503 20.943 10.005 20.9507 10.1032 20.9372H14.3982C14.4964 20.9507 14.5964 20.943 14.6914 20.9147C14.7864 20.8863 14.8742 20.838 14.949 20.7728C15.0237 20.7077 15.0836 20.6273 15.1247 20.537C15.1657 20.4468 15.187 20.3488 15.187 20.2497C15.187 20.1505 15.1657 20.0525 15.1247 19.9623C15.0836 19.872 15.0237 19.7916 14.949 19.7265C14.8742 19.6614 14.7864 19.613 14.6914 19.5846C14.5964 19.5563 14.4964 19.5486 14.3982 19.5622H10.1032Z" fill="#666666"/>
<path opacity="0.2" d="M8.63593 16.9499C8.53772 16.9363 8.43774 16.944 8.34274 16.9723C8.24773 17.0007 8.15991 17.0491 8.08517 17.1142C8.01043 17.1793 7.95052 17.2597 7.90946 17.35C7.86841 17.4402 7.84717 17.5382 7.84717 17.6374C7.84717 17.7365 7.86841 17.8345 7.90946 17.9247C7.95052 18.015 8.01043 18.0954 8.08517 18.1605C8.15991 18.2257 8.24773 18.274 8.34274 18.3024C8.43774 18.3307 8.53772 18.3384 8.63593 18.3249H15.8649C15.9631 18.3384 16.0631 18.3307 16.1581 18.3024C16.2531 18.274 16.3409 18.2257 16.4157 18.1605C16.4904 18.0954 16.5503 18.015 16.5914 17.9247C16.6324 17.8345 16.6537 17.7365 16.6537 17.6374C16.6537 17.5382 16.6324 17.4402 16.5914 17.35C16.5503 17.2597 16.4904 17.1793 16.4157 17.1142C16.3409 17.0491 16.2531 17.0007 16.1581 16.9723C16.0631 16.944 15.9631 16.9363 15.8649 16.9499H8.63593Z" fill="#666666"/>
</svg>
