<svg width="24" height="24" viewBox="0 0 24 24" fill="none" xmlns="http://www.w3.org/2000/svg">
<path d="M9.98122 15.0067L15.1925 12L9.98122 8.99329V15.0067ZM21.5775 7.16107C21.7027 7.63087 21.7966 8.25727 21.8592 9.04027C21.9218 9.82327 21.9531 10.528 21.9531 11.1544L22 12C22 14.1611 21.8592 15.774 21.5775 16.8389C21.3271 17.7472 20.748 18.3266 19.8404 18.5772C19.3709 18.7025 18.4945 18.7964 17.2113 18.8591C15.9593 18.9217 14.7543 18.953 13.5962 18.953L12 19C7.83725 19 5.22379 18.8591 4.15962 18.5772C3.25196 18.3266 2.67293 17.7472 2.42254 16.8389C2.29734 16.3691 2.20344 15.7427 2.14085 14.9597C2.07825 14.1767 2.04695 13.472 2.04695 12.8456L2 12C2 9.83893 2.14085 8.22595 2.42254 7.16107C2.67293 6.2528 3.25196 5.67338 4.15962 5.42282C4.62911 5.29754 5.50548 5.20358 6.78873 5.14094C8.04069 5.0783 9.2457 5.04698 10.4038 5.04698L12 5C16.1628 5 18.7762 5.14094 19.8404 5.42282C20.748 5.67338 21.3271 6.2528 21.5775 7.16107Z" fill="#FF0001"/>
</svg>
